<svg width="17" height="20" viewBox="0 0 17 20" fill="none" xmlns="http://www.w3.org/2000/svg">
<g clip-path="url(#clip0_225_224)">
<path d="M5.23962 8.8092V14.1502" stroke="white" stroke-linecap="round" stroke-linejoin="round"/>
<path d="M3.60754 9.4021L5.23958 11.1069" stroke="white" stroke-linecap="round" stroke-linejoin="round"/>
<path d="M6.87166 9.4021L5.23962 11.1069" stroke="white" stroke-linecap="round" stroke-linejoin="round"/>
<path d="M0.811157 11.481L5.23959 14.1502" stroke="white" stroke-linecap="round" stroke-linejoin="round"/>
<path d="M0.487183 13.2519L2.71601 12.6285" stroke="white" stroke-linecap="round" stroke-linejoin="round"/>
<path d="M2.11926 10.3003L2.71605 12.6285" stroke="white" stroke-linecap="round" stroke-linejoin="round"/>
<path d="M0.811157 16.8219L5.23959 14.1501" stroke="white" stroke-linecap="round" stroke-linejoin="round"/>
<path d="M2.11926 18L2.71605 15.6718" stroke="white" stroke-linecap="round" stroke-linejoin="round"/>
<path d="M0.487183 15.0483L2.71601 15.6717" stroke="white" stroke-linecap="round" stroke-linejoin="round"/>
<path d="M5.23962 19.4911V14.1501" stroke="white" stroke-linecap="round" stroke-linejoin="round"/>
<path d="M6.87166 18.8983L5.23962 17.1934" stroke="white" stroke-linecap="round" stroke-linejoin="round"/>
<path d="M3.60754 18.8983L5.23958 17.1934" stroke="white" stroke-linecap="round" stroke-linejoin="round"/>
<path d="M9.66805 16.8219L5.23962 14.1501" stroke="white" stroke-linecap="round" stroke-linejoin="round"/>
<path d="M9.98957 15.0483L7.76074 15.6717" stroke="white" stroke-linecap="round" stroke-linejoin="round"/>
<path d="M8.35997 18L7.76074 15.6718" stroke="white" stroke-linecap="round" stroke-linejoin="round"/>
<path d="M9.66805 11.481L5.23962 14.1502" stroke="white" stroke-linecap="round" stroke-linejoin="round"/>
<path d="M8.35997 10.3003L7.76074 12.6285" stroke="white" stroke-linecap="round" stroke-linejoin="round"/>
<path d="M9.98957 13.2519L7.76074 12.6285" stroke="white" stroke-linecap="round" stroke-linejoin="round"/>
<path d="M8.67175 0.508911V5.42494" stroke="white" stroke-linecap="round" stroke-linejoin="round"/>
<path d="M6.63293 4.19593L10.7106 1.73792" stroke="white" stroke-linecap="round" stroke-linejoin="round"/>
<path d="M10.7106 4.19593L6.63293 1.73792" stroke="white" stroke-linecap="round" stroke-linejoin="round"/>
<path d="M15.1537 7.33337V10.6158" stroke="white" stroke-linecap="round" stroke-linejoin="round"/>
<path d="M13.7944 9.79395L16.5129 8.15527" stroke="white" stroke-linecap="round" stroke-linejoin="round"/>
<path d="M16.5129 9.79395L13.7944 8.15527" stroke="white" stroke-linecap="round" stroke-linejoin="round"/>
</g>
<defs>
<clipPath id="clip0_225_224">
<rect width="17" height="20" fill="white"/>
</clipPath>
</defs>
</svg>
