<svg width="18" height="16" viewBox="0 0 18 16" fill="none" xmlns="http://www.w3.org/2000/svg">
<g clip-path="url(#clip0_225_222)">
<path d="M17.4891 3.85473H11.2286C10.3218 3.85473 9.58618 3.10764 9.58618 2.18676C9.58618 1.26588 10.3218 0.518799 11.2286 0.518799C11.908 0.518799 12.493 0.939032 12.7407 1.53825" stroke="white" stroke-linecap="round" stroke-linejoin="round"/>
<path d="M14.0485 7.73018H2.9783C1.61687 7.73018 0.510864 6.60956 0.510864 5.22434C0.510864 3.83913 1.61431 2.71851 2.9783 2.71851C4.34228 2.71851 5.44573 3.83913 5.44573 5.22434" stroke="white" stroke-linecap="round" stroke-linejoin="round"/>
<path d="M15.4585 7.73022H17.4891" stroke="white" stroke-linecap="round" stroke-linejoin="round"/>
<path d="M10.1584 15.4812H7.25676C6.19674 15.4812 5.3385 14.6096 5.3385 13.5331C5.3385 12.4566 6.19674 11.585 7.25676 11.585C7.91832 11.585 8.50325 11.9248 8.84808 12.4436" stroke="white" stroke-linecap="round" stroke-linejoin="round"/>
<path d="M11.7881 15.4812H17.4892" stroke="white" stroke-linecap="round" stroke-linejoin="round"/>
<path d="M11.6271 11.6057H17.4891" stroke="white" stroke-linecap="round" stroke-linejoin="round"/>
</g>
<defs>
<clipPath id="clip0_225_222">
<rect width="18" height="16" fill="white"/>
</clipPath>
</defs>
</svg>
